<svg width="129" height="129" xmlns="http://www.w3.org/2000/svg">
  <g fill="none" fill-rule="evenodd">
    <path d="M12.3 1h103.4c6.8 0 12.3 5.4 12.3 12.2v103.4c0 6.8-5.5 12.3-12.3 12.3H12.3C5.6 129 0 123.4 0 116.6V13.2C0 6.4 5.6 1 12.3 1z" fill="#E05C43" fill-rule="nonzero"/>
    <path d="M52 65.5c.5-20.7 14-29.7 18.8-25.2 4.7 4.5 3 14.3-6 20.3-8.8 6.1-12.8 5-12.8 5m12.9 21c-12 .2-10.8-7.7-10.8-7.7s44-15 32-44.7c-5.4-7.7-11.7-10-20.5-9.9-8.9.2-19.8 5.6-27 21.6a70.3 70.3 0 00-5.2 20.3s-7.8 1.6-12-1.9c-4.1-3.5-6.3 0-6.3 0s-7.2 8.4 0 11.2a72 72 0 0018.2 3.3c1 7.4 3.5 14.5 12.6 20.5 15.4 10 38-.6 38-.6A76 76 0 00110.6 80a3.5 3.5 0 000-4.8l-4.5-4.6a3.5 3.5 0 00-4.8-.3c-6 4.9-21.5 16.3-36.3 16.3" fill="#FEFEFE"/>
  </g>
</svg>
